HIERARCHY
ROOT Hips
{
	OFFSET 0.00000 0.00000 0.00000
	CHANNELS 6 Xposition Yposition Zposition Zrotation Yrotation Xrotation 
	JOINT LHipJoint
	{
		OFFSET 0 0 0
		CHANNELS 3 Zrotation Yrotation Xrotation
		JOINT LeftHip
		{
			OFFSET 1.48831 -1.59570 0.95625
			CHANNELS 3 Zrotation Yrotation Xrotation
			JOINT LeftKnee
			{
				OFFSET 2.20856 -6.06797 0.00000
				CHANNELS 3 Zrotation Yrotation Xrotation
				JOINT LeftAnkle
				{
					OFFSET 2.62924 -7.22379 0.00000
					CHANNELS 3 Zrotation Yrotation Xrotation
					JOINT LeftToe
					{
						OFFSET 0.16802 -0.46163 2.41673
						CHANNELS 3 Zrotation Yrotation Xrotation
						End Site
						{
							OFFSET 0.00000 -0.00000 1.23760
						}
					}
				}
			}
		}
	}
	JOINT RHipJoint
	{
		OFFSET 0 0 0
		CHANNELS 3 Zrotation Yrotation Xrotation
		JOINT RightHip
		{
			OFFSET -1.56796 -1.59570 0.95625
			CHANNELS 3 Zrotation Yrotation Xrotation
			JOINT RightKnee
			{
				OFFSET -2.29239 -6.29829 0.00000
				CHANNELS 3 Zrotation Yrotation Xrotation
				JOINT RightAnkle
				{
					OFFSET -2.66963 -7.33475 0.00000
					CHANNELS 3 Zrotation Yrotation Xrotation
					JOINT RightToe
					{
						OFFSET -0.18185 -0.49964 2.34359
						CHANNELS 3 Zrotation Yrotation Xrotation
						End Site
						{
							OFFSET -0.00000 -0.00000 1.20477
						}
					}
				}
			}
		}
	}
	JOINT lowerback
	{
		OFFSET 0 0 0
		CHANNELS 3 Zrotation Yrotation Xrotation
		JOINT Chest
		{
			OFFSET 0.03505 2.15832 -0.34324
			CHANNELS 3 Zrotation Yrotation Xrotation
			JOINT Chest2
			{
				OFFSET -0.01089 2.17963 0.04689
				CHANNELS 3 Zrotation Yrotation Xrotation
				JOINT lowerneck
				{
					OFFSET 0 0 0
					CHANNELS 3 Zrotation Yrotation Xrotation
					JOINT Neck
					{
						OFFSET 0.04686 1.69404 0.22159
						CHANNELS 3 Zrotation Yrotation Xrotation
						JOINT Head
						{
							OFFSET 0.00265 1.69305 -0.01513
							CHANNELS 3 Zrotation Yrotation Xrotation
							End Site
							{
								OFFSET -0.00415 1.80215 -0.03034
							}
						}
					}
				}
				JOINT LeftCollar
				{
					OFFSET 0 0 0
					CHANNELS 3 Zrotation Yrotation Xrotation
					JOINT LeftShoulder
					{
						OFFSET 3.67184 1.11724 -0.19002
CHANNELS 3 Zrotation Xrotation Yrotation
						JOINT LeftElbow
						{
OFFSET 0 -5.177140 -0.000000
CHANNELS 3 Zrotation Xrotation Yrotation
							JOINT LeftWrist
							{
OFFSET 0 -3.436790 -0.000000
CHANNELS 3 Zrotation Xrotation Yrotation
								JOINT lhand
								{
									OFFSET 0 0 0
CHANNELS 3 Zrotation Xrotation Yrotation
									JOINT LFingers
									{
OFFSET 0 -0.573120 -0.000000
CHANNELS 3 Zrotation Xrotation Yrotation
										End Site
										{
OFFSET 0 -0.462060 -0.000000
										}
									}
								}
								JOINT LThumb
								{
OFFSET 0 0.000000 0.000000
CHANNELS 3 Zrotation Xrotation Yrotation
									End Site
									{
OFFSET 0 -0.469120 0.469120
									}
								}
							}
						}
					}
				}
				JOINT RightCollar
				{
					OFFSET 0 0 0
					CHANNELS 3 Zrotation Yrotation Xrotation
					JOINT RightShoulder
					{
						OFFSET -3.59596 0.95831 -0.26050
CHANNELS 3 Zrotation Xrotation Yrotation
						JOINT RightElbow
						{
OFFSET 0 -5.239080 -0.000000
CHANNELS 3 Zrotation Xrotation Yrotation
							JOINT RightWrist
							{
OFFSET 0 -3.464850 -0.000000
CHANNELS 3 Zrotation Xrotation Yrotation
								JOINT rhand
								{
									OFFSET 0 0 0
CHANNELS 3 Zrotation Xrotation Yrotation
									JOINT RFingers
									{
OFFSET 0 -0.608750 -0.000000
CHANNELS 3 Zrotation Xrotation Yrotation
										End Site
										{
OFFSET 0 -0.490790 -0.000000
										}
									}
								}
								JOINT RThumb
								{
OFFSET 0 0.000000 0.000000
CHANNELS 3 Zrotation Xrotation Yrotation
									End Site
									{
OFFSET 0 -0.498290 0.498290
									}
								}
							}
						}
					}
				}
			}
		}
	}
}
MOTION
Frames: 5
Frame Time: 0.008333333333333333
-1.156400 16.607800 -3.372600 -126.231000 -86.239300 130.124000 0.000000 0.000000 0.000000 -11.192700 2.313800 -2.929000 0.651500 5.163000 14.374200 0.330000 10.930300 -19.703600 0.081900 -1.845900 -5.079800 0.000000 0.000000 0.000000 17.037100 5.836000 -8.976300 -2.502600 -9.842600 28.468600 -1.851900 -9.062700 -30.314700 -0.058500 -1.561300 4.294700 2.911800 -0.772500 -0.634100 0.730700 -1.270500 5.033300 -0.944500 -0.557100 5.522600 3.090000 1.110700 -7.539800 -1.313600 0.623200 25.267200 -0.958900 0.178600 9.171200 0.000000 0.000000 0.000000 1.492900 -6.966800 -14.792800 11.665000 -19.300400 1.990200 16.074800 -22.350100 -5.526300 0.000000 0.000000 0.000000 -7.125000 0.000000 0.000000 -8.862000 35.612500 -2.064500 0.000000 0.000000 0.000000 -2.609300 -2.359700 19.632500 -19.897900 -30.519100 -5.479400 -19.179400 2.817900 7.999000 0.000000 0.000000 0.000000 7.125000 0.000000 -0.000000 6.597200 38.364800 1.083600
-1.145235 16.601305 -3.369903 -123.892858 -86.529524 127.533409 0.000000 0.000000 0.000000 -11.326156 2.444271 -2.949185 0.665980 5.219120 14.534766 0.305273 10.813029 -19.301009 0.118607 -2.219970 -6.113897 0.000000 0.000000 0.000000 16.864661 5.389873 -8.963642 -2.509973 -9.855952 28.511446 -1.676207 -9.963014 -29.807294 -0.011603 -0.695970 1.912692 2.890549 -0.669560 -0.679702 0.640654 -1.126193 5.007535 -1.018732 -0.483243 5.525287 2.957415 1.086341 -7.520089 -1.472226 0.659053 25.250581 -0.986590 0.168698 9.161286 0.000000 0.000000 0.000000 0.962650 -8.160419 -19.611701 13.896400 -22.586450 2.788234 16.345390 -25.006459 -5.612617 0.000000 0.000000 0.000000 -7.125000 0.000000 0.000000 -8.650128 35.714975 -1.992347 0.000000 0.000000 0.000000 -2.833339 -2.743671 20.811507 -20.750242 -31.535707 -5.918804 -19.158484 2.214381 7.587392 0.000000 0.000000 0.000000 7.125000 0.000000 0.000000 6.559074 37.931917 1.147338
-1.125473 16.600993 -3.371490 -121.063756 -86.718670 124.455257 0.000000 0.000000 0.000000 -11.343518 2.583150 -2.892489 0.668360 5.228150 14.560376 0.305670 10.544488 -19.004424 0.122207 -2.253650 -6.207144 0.000000 0.000000 0.000000 16.840022 5.255393 -8.804077 -2.524000 -9.881403 28.593510 -1.687713 -10.058409 -29.949949 -0.012483 -0.722609 1.985944 2.844570 -0.664583 -0.658220 0.586550 -1.116060 5.045657 -1.048613 -0.478397 5.553100 2.939247 1.218196 -7.568297 -1.699519 0.899102 25.392483 -1.038823 0.254346 9.226436 0.000000 0.000000 0.000000 0.462009 -8.849307 -23.959579 16.410345 -26.073824 3.824574 16.463584 -27.825614 -4.699145 0.000000 0.000000 0.000000 -7.125000 0.000000 0.000000 -8.432887 34.780059 -2.135242 0.000000 0.000000 0.000000 -3.133665 -3.520462 21.431522 -20.670275 -31.441503 -5.876968 -19.187356 2.350284 7.520654 0.000000 0.000000 0.000000 7.125000 0.000000 0.000000 6.525754 37.863854 1.152387
-1.105220 16.600010 -3.372490 -117.557122 -86.749464 120.850573 0.000000 0.000000 0.000000 -11.231575 2.559379 -2.995144 0.682160 5.280940 14.711549 0.312965 10.375302 -18.898916 0.122900 -2.259790 -6.224260 0.000000 0.000000 0.000000 16.937260 5.157251 -8.741720 -2.518430 -9.871355 28.561175 -1.684295 -10.128025 -29.977945 -0.013195 -0.742030 2.039239 2.921680 -0.701425 -0.722315 0.544771 -1.167549 5.042625 -1.138719 -0.498450 5.582745 2.885536 1.253480 -7.533316 -1.742100 0.965725 25.450641 -1.038260 0.274540 9.241690 0.000000 0.000000 0.000000 0.221196 -9.321041 -26.937629 18.184469 -28.392766 4.636605 16.113322 -28.966170 -4.338551 0.000000 0.000000 0.000000 -7.125000 0.000000 0.000000 -8.674118 34.393926 -2.279754 0.000000 0.000000 0.000000 -3.323255 -3.987227 21.363195 -20.192671 -30.873847 -5.629883 -18.820283 2.856107 7.350872 0.000000 0.000000 0.000000 7.125000 0.000000 0.000000 6.814389 37.661743 1.237803
-1.080214 16.599793 -3.376467 -117.015127 -86.709028 120.248461 0.000000 0.000000 0.000000 -11.135341 2.651866 -3.120565 0.690660 5.313033 14.803519 0.313293 10.260407 -18.774921 0.125620 -2.285087 -6.294221 0.000000 0.000000 0.000000 17.017845 5.209926 -8.725999 -2.512607 -9.860900 28.527313 -1.680907 -10.185193 -29.997194 -0.014193 -0.770080 2.116392 2.970106 -0.758546 -0.672129 0.471834 -1.237766 5.001541 -1.243965 -0.530053 5.505456 2.848442 1.263620 -7.339922 -1.815093 1.006860 25.356799 -1.052600 0.281833 9.172953 0.000000 0.000000 0.000000 0.287998 -9.687717 -28.202274 18.485485 -28.774386 4.780682 15.745468 -29.082438 -4.159492 0.000000 0.000000 0.000000 -7.125000 0.000000 0.000000 -8.951419 34.194932 -2.397860 0.000000 0.000000 0.000000 -3.274462 -4.186806 20.789269 -19.380984 -29.889394 -5.219339 -17.599769 3.852323 7.175084 0.000000 0.000000 0.000000 7.125000 0.000000 0.000000 7.821012 37.400351 1.473679
